ffmpeg version 6.1.1-essentials_build-www.gyan.dev Copyright (c) 2000-2023 the FFmpeg developers
  built with gcc 12.2.0 (Rev10, Built by MSYS2 project)
  configuration: --enable-gpl --enable-version3 --enable-static --pkg-config=pkgconf --disable-w32threads --disable-autodetect --enable-fontconfig --enable-iconv --enable-gnutls --enable-libxml2 --enable-gmp --enable-bzlib --enable-lzma --enable-zlib --enable-libsrt --enable-libssh --enable-libzmq --enable-avisynth --enable-sdl2 --enable-libwebp --enable-libx264 --enable-libx265 --enable-libxvid --enable-libaom --enable-libopenjpeg --enable-libvpx --enable-mediafoundation --enable-libass --enable-libfreetype --enable-libfribidi --enable-libharfbuzz --enable-libvidstab --enable-libvmaf --enable-libzimg --enable-amf --enable-cuda-llvm --enable-cuvid --enable-ffnvcodec --enable-nvdec --enable-nvenc --enable-dxva2 --enable-d3d11va --enable-libvpl --enable-libgme --enable-libopenmpt --enable-libopencore-amrwb --enable-libmp3lame --enable-libtheora --enable-libvo-amrwbenc --enable-libgsm --enable-libopencore-amrnb --enable-libopus --enable-libspeex --enable-libvorbis --enable-librubberband
  libavutil      58. 29.100 / 58. 29.100
  libavcodec     60. 31.102 / 60. 31.102
  libavformat    60. 16.100 / 60. 16.100
  libavdevice    60.  3.100 / 60.  3.100
  libavfilter     9. 12.100 /  9. 12.100
  libswscale      7.  5.100 /  7.  5.100
  libswresample   4. 12.100 /  4. 12.100
  libpostproc    57.  3.100 / 57.  3.100
Fontconfig error: Cannot load default config file: No such file: (null)
Fontconfig error: Cannot load default config file: No such file: (null)
Input #0, lavfi, from 'color=size=2560x1440:duration=22:rate=30:color=black':
  Duration: N/A, start: 0.000000, bitrate: N/A
  Stream #0:0: Video: wrapped_avframe, yuv420p, 2560x1440 [SAR 1:1 DAR 16:9], 30 fps, 30 tbr, 30 tbn
[mov,mp4,m4a,3gp,3g2,mj2 @ 0000023978713d40] Unknown cover type: 0x1.
Input #1, mov,mp4,m4a,3gp,3g2,mj2, from 'C:\Users\engsa\Desktop\CREATOCLONE\uploads\video-1766933032881-0.bin':
  Metadata:
    major_brand     : qt  
    minor_version   : 0
    compatible_brands: qt  
    creation_time   : 2025-10-15T08:38:31.000000Z
  Duration: 00:00:24.64, start: 0.000000, bitrate: 16561 kb/s
  Stream #1:0[0x1](und): Video: h264 (High) (avc1 / 0x31637661), yuv420p(tv, bt709, progressive), 1972x1080, 16365 kb/s, 50 fps, 50 tbr, 600 tbn (default)
    Metadata:
      creation_time   : 2025-10-15T08:38:31.000000Z
      handler_name    : Core Media Video
      vendor_id       : [0][0][0][0]
      encoder         : H.264
  Stream #1:1[0x2](und): Audio: aac (LC) (mp4a / 0x6134706D), 44100 Hz, stereo, fltp, 188 kb/s (default)
    Metadata:
      creation_time   : 2025-10-15T08:38:31.000000Z
      handler_name    : Core Media Audio
      vendor_id       : [0][0][0][0]
Input #2, jpeg_pipe, from 'C:\Users\engsa\Desktop\CREATOCLONE\uploads\image-1766933033244-1.bin':
  Duration: N/A, bitrate: N/A
  Stream #2:0: Video: mjpeg (Baseline), yuvj444p(pc, bt470bg/unknown/unknown), 1280x707 [SAR 72:72 DAR 1280:707], 25 fps, 25 tbr, 25 tbn
Input #3, jpeg_pipe, from 'C:\Users\engsa\Desktop\CREATOCLONE\uploads\image-1766933033256-2.bin':
  Duration: N/A, bitrate: N/A
  Stream #3:0: Video: mjpeg (Progressive), yuvj420p(pc, bt470bg/unknown/unknown), 400x400 [SAR 1:1 DAR 1:1], 25 fps, 25 tbr, 25 tbn
[mp3 @ 0000023978702b80] Estimating duration from bitrate, this may be inaccurate
Input #4, mp3, from 'C:\Users\engsa\Desktop\CREATOCLONE\uploads\audio-1766933033261-0.mp3':
  Metadata:
    encoder         : Lavf60.16.100
  Duration: 00:00:03.42, start: 0.000000, bitrate: 128 kb/s
  Stream #4:0: Audio: mp3, 44100 Hz, mono, fltp, 128 kb/s
Stream mapping:
  Stream #0:0 (wrapped_avframe) -> overlay
  Stream #1:0 (h264) -> scale:default
  Stream #1:1 (aac) -> adelay:default
  Stream #2:0 (mjpeg) -> scale:default
  Stream #3:0 (mjpeg) -> scale:default
  Stream #4:0 (mp3float) -> adelay:default
  overlay:default -> Stream #0:0 (libx264)
  amix:default -> Stream #0:1 (aac)
Press [q] to stop, [?] for help
Fontconfig error: Cannot load default config file: No such file: (null)
Fontconfig error: Cannot load default config file: No such file: (null)
[swscaler @ 00000239028f7040] deprecated pixel format used, make sure you did set range correctly
[swscaler @ 0000023903ad8040] deprecated pixel format used, make sure you did set range correctly
[swscaler @ 00000239029e2780] deprecated pixel format used, make sure you did set range correctly
    Last message repeated 2 times
[swscaler @ 0000023903ad8040] deprecated pixel format used, make sure you did set range correctly
    Last message repeated 2 times
[libx264 @ 0000023979e5c080] using SAR=1/1
[libx264 @ 0000023979e5c080] using cpu capabilities: MMX2 SSE2Fast SSSE3 SSE4.2 AVX FMA3 BMI2 AVX2
[libx264 @ 0000023979e5c080] profile High, level 5.0, 4:2:0, 8-bit
[libx264 @ 0000023979e5c080] 264 - core 164 r3172 c1c9931 - H.264/MPEG-4 AVC codec - Copyleft 2003-2023 - http://www.videolan.org/x264.html - options: cabac=1 ref=3 deblock=1:0:0 analyse=0x3:0x113 me=hex subme=7 psy=1 psy_rd=1.00:0.00 mixed_ref=1 me_range=16 chroma_me=1 trellis=1 8x8dct=1 cqm=0 deadzone=21,11 fast_pskip=1 chroma_qp_offset=-2 threads=36 lookahead_threads=6 sliced_threads=0 nr=0 decimate=1 interlaced=0 bluray_compat=0 constrained_intra=0 bframes=3 b_pyramid=2 b_adapt=1 b_bias=0 direct=1 weightb=1 open_gop=0 weightp=2 keyint=250 keyint_min=25 scenecut=40 intra_refresh=0 rc_lookahead=40 rc=crf mbtree=1 crf=23.0 qcomp=0.60 qpmin=0 qpmax=69 qpstep=4 ip_ratio=1.40 aq=1:1.00
Output #0, mp4, to 'C:\Users\engsa\Desktop\CREATOCLONE\uploads\render-1766933032881.mp4':
  Metadata:
    encoder         : Lavf60.16.100
  Stream #0:0: Video: h264 (avc1 / 0x31637661), yuv420p(progressive), 2560x1440 [SAR 1:1 DAR 16:9], q=2-31, 30 fps, 15360 tbn
    Metadata:
      encoder         : Lavc60.31.102 libx264
    Side data:
      cpb: bitrate max/min/avg: 0/0/0 buffer size: 0 vbv_delay: N/A
  Stream #0:1: Audio: aac (LC) (mp4a / 0x6134706D), 44100 Hz, mono, fltp, 192 kb/s
    Metadata:
      encoder         : Lavc60.31.102 aac
frame=    0 fps=0.0 q=0.0 size=       0kB time=N/A bitrate=N/A speed=N/A    frame=    0 fps=0.0 q=0.0 size=       0kB time=00:00:00.23 bitrate=   1.7kbits/s speed=0.427x    frame=    0 fps=0.0 q=0.0 size=       0kB time=00:00:01.18 bitrate=   0.3kbits/s speed=1.13x    frame=    0 fps=0.0 q=0.0 size=       0kB time=00:00:01.95 bitrate=   0.2kbits/s speed=1.26x    frame=    4 fps=1.9 q=29.0 size=     256kB time=00:00:02.71 bitrate= 772.1kbits/s speed=1.32x    frame=   31 fps= 12 q=29.0 size=    2560kB time=00:00:03.64 bitrate=5752.8kbits/s speed=1.42x    frame=   63 fps= 21 q=29.0 size=    4352kB time=00:00:04.69 bitrate=7601.0kbits/s speed=1.53x    frame=  101 fps= 28 q=29.0 size=    7936kB time=00:00:05.96 bitrate=10894.3kbits/s speed=1.68x    frame=  133 fps= 33 q=29.0 size=   10752kB time=00:00:07.03 bitrate=12519.2kbits/s speed=1.72x    frame=  171 fps= 37 q=29.0 size=   14592kB time=00:00:08.31 bitrate=14380.1kbits/s speed= 1.8x    frame=  249 fps= 49 q=29.0 size=   18688kB time=00:00:10.91 bitrate=14028.0kbits/s speed=2.14x    frame=  251 fps= 45 q=29.0 size=   18688kB time=00:00:10.95 bitrate=13968.5kbits/s speed=1.95x    [out#0/mp4 @ 000002397a8a8500] video:18570kB audio:225kB subtitle:0kB other streams:0kB global headers:0kB muxing overhead: 0.071694%
frame=  361 fps= 62 q=-1.0 Lsize=   18808kB time=00:00:11.93 bitrate=12911.3kbits/s speed=2.04x    
[libx264 @ 0000023979e5c080] frame I:3     Avg QP:19.06  size:190530
[libx264 @ 0000023979e5c080] frame P:95    Avg QP:20.75  size: 72220
[libx264 @ 0000023979e5c080] frame B:263   Avg QP:22.25  size: 44038
[libx264 @ 0000023979e5c080] consecutive B-frames:  1.7%  2.2%  4.2% 92.0%
[libx264 @ 0000023979e5c080] mb I  I16..4: 15.3% 61.4% 23.4%
[libx264 @ 0000023979e5c080] mb P  I16..4:  3.6% 16.7%  8.5%  P16..4:  7.0%  4.1%  1.5%  0.0%  0.0%    skip:58.6%
[libx264 @ 0000023979e5c080] mb B  I16..4:  1.2%  1.9%  2.0%  B16..8: 13.8%  7.2%  2.0%  direct: 3.2%  skip:68.6%  L0:42.7% L1:43.0% BI:14.3%
[libx264 @ 0000023979e5c080] 8x8 transform intra:51.7% inter:46.7%
[libx264 @ 0000023979e5c080] coded y,uvDC,uvAC intra: 47.1% 35.6% 13.6% inter: 10.8% 6.3% 0.2%
[libx264 @ 0000023979e5c080] i16 v,h,dc,p: 57% 30%  5%  8%
[libx264 @ 0000023979e5c080] i8 v,h,dc,ddl,ddr,vr,hd,vl,hu: 34% 18% 24%  3%  4%  4%  5%  3%  4%
[libx264 @ 0000023979e5c080] i4 v,h,dc,ddl,ddr,vr,hd,vl,hu: 34% 26% 14%  3%  5%  4%  5%  3%  4%
[libx264 @ 0000023979e5c080] i8c dc,h,v,p: 65% 17% 15%  3%
[libx264 @ 0000023979e5c080] Weighted P-Frames: Y:5.3% UV:3.2%
[libx264 @ 0000023979e5c080] ref P L0: 55.5% 16.0% 19.5%  8.7%  0.3%
[libx264 @ 0000023979e5c080] ref B L0: 89.4%  8.5%  2.1%
[libx264 @ 0000023979e5c080] ref B L1: 96.2%  3.8%
[libx264 @ 0000023979e5c080] kb/s:12641.20
[aac @ 0000023979e5d080] Qavg: 59405.062
